<?xml version="1.0" encoding="UTF-8"?>
<svg id="Camada_1" xmlns="http://www.w3.org/2000/svg" version="1.1" viewBox="0 0 12926 2834.6">
  <!-- Generator: Adobe Illustrator 29.8.2, SVG Export Plug-In . SVG Version: 2.1.1 Build 3)  -->
  <defs>
    <style>
      .st0 {
        fill: #fff;
      }

      .st1 {
        fill: #97d1f3;
      }

      .st2 {
        fill: #1d1d1b;
      }
    </style>
  </defs>
  <rect id="Fundo" class="st1" width="12926" height="2834.6"/>
  <path id="Imagem_Gazin" class="st2" d="M7096.9,0l-1370,2621.3h5281.7c131.5,0,252.7-70.8,317.4-185.2L12703.3,0h-5606.4Z"/>
  <path id="Imagem_Cidade" class="st2" d="M1609.7,0L510.6,2086.7c-127.9,242.8,48.2,534.6,322.6,534.6h4893.7L7096.9,0H1609.7Z"/>
  <path id="Borda" class="st0" d="M12682.6,0l-1372.2,2427.2c-61.4,108.6-177,176.1-301.8,176.1h-5252l718.7-1375.1L7117.2,0h-40.6l-1360.6,2603.3H833.2c-122.5,0-233.5-62.6-296.8-167.5-63.3-104.9-67-232.3-9.9-340.7L1630,0h-40.7L494.7,2078.3c-63,119.7-58.9,260.3,11,376.1,69.9,115.8,192.4,184.9,327.6,184.9h10175.4c137.7,0,265.3-74.5,333.1-194.3L12724,0h-41.4Z"/>
</svg>
